<?xml version="1.0" encoding="utf-8"?>
<!-- Generator: Adobe Illustrator 21.0.0, SVG Export Plug-In . SVG Version: 6.00 Build 0)  -->
<svg version="1.1" id="Layer_1" xmlns="http://www.w3.org/2000/svg" xmlns:xlink="http://www.w3.org/1999/xlink" x="0px" y="0px"
	 viewBox="0 0 1000 800" style="enable-background:new 0 0 1000 800;" xml:space="preserve">
<style type="text/css">
	.st0{fill:#E32285;}
</style>
<path id="XMLID_1957_" class="st0" d="M620.7,296.6c-5.3,7-13,6.8-19.6,4.7c6-14.3,7.8-27.6,8.7-43.5c1.7-30.8-8.1-52.3-24.1-67
	c-3.4,19.2-14.6,56.1-51.5,99.5l0,0l0,0c-4.2,4.9-8.7,9.9-13.5,14.9c-14.8,18.5-34.6,51.2-21,81.2c13.9,30.5,38.1,11.1,38.1,11.1
	s-20.9,30.9-51.5,10c-18.2-12.4-23.5-32.6-23.5-51.9c-83.8,70.4-6,123-6,123c-40-20.5-69.4-47-47.7-101.6c0,0-46.9,54.5-23.1,121.8
	c19.3,54.8,69.7,91.1,104,110.3c-24.9-33.3-43.4-68.9-34.2-93.2c5.6-14.7,18.6-23.4,38.3-22.3c33.6,1.9,58,32.3,66.7,6
	c2.8-8.4,1.6-17,2.6-26.2c1.6-14.7,13.1-11.2,15.6-22c1.3-5.8-5.5-12.4-10.8-16c-1.6-1.1-1.4-2.1,0.5-2.2c10-0.2,18.7-0.4,23.6-10.3
	c2.5-5.1-8.4-20.6-1.5-24.6c7.7-4.5,23.8-6.7,24-17.7c0.1-3.6-1.2-7.1-2.6-10.3c-4.7-10.6-12-20.2-14.8-31.6
	c-2.3-9.5-2.1-19.4,0.5-28.8C616.5,311.6,620.7,296.6,620.7,296.6z"/>
</svg>
